<svg xmlns="http://www.w3.org/2000/svg" viewBox="0 0 512 512">
  <defs>
    <linearGradient id="bg" x1="0%" y1="0%" x2="100%" y2="100%">
      <stop offset="0%" stop-color="#1e3a34" />
      <stop offset="100%" stop-color="#0f2420" />
    </linearGradient>
    <radialGradient id="glow" cx="50%" cy="36%" r="72%">
      <stop offset="0%" stop-color="#ffd36a" stop-opacity="0.95" />
      <stop offset="100%" stop-color="#f3a11f" stop-opacity="0" />
    </radialGradient>
    <linearGradient id="neck" x1="0%" y1="0%" x2="0%" y2="100%">
      <stop offset="0%" stop-color="#f5d18f" />
      <stop offset="100%" stop-color="#d59632" />
    </linearGradient>
    <filter id="shadow" x="-20%" y="-20%" width="140%" height="140%">
      <feDropShadow dx="0" dy="10" stdDeviation="12" flood-color="#081512" flood-opacity="0.32" />
    </filter>
  </defs>

  <rect width="512" height="512" rx="116" fill="url(#bg)" />
  <circle cx="256" cy="214" r="196" fill="url(#glow)" />

  <g filter="url(#shadow)">
    <rect x="128" y="92" width="256" height="330" rx="22" fill="#10231f" stroke="#ffe9b4" stroke-width="10" />
    <rect x="142" y="110" width="228" height="294" rx="14" fill="#18302a" />

    <g stroke="#efc469" stroke-width="6" opacity="0.95">
      <line x1="178" y1="120" x2="178" y2="394" />
      <line x1="218" y1="120" x2="218" y2="394" />
      <line x1="258" y1="120" x2="258" y2="394" />
      <line x1="298" y1="120" x2="298" y2="394" />
      <line x1="338" y1="120" x2="338" y2="394" />
    </g>

    <g stroke="#ffefca" stroke-width="10" stroke-linecap="round">
      <line x1="146" y1="152" x2="366" y2="152" />
      <line x1="146" y1="206" x2="366" y2="206" />
      <line x1="146" y1="260" x2="366" y2="260" />
      <line x1="146" y1="314" x2="366" y2="314" />
      <line x1="146" y1="368" x2="366" y2="368" />
    </g>

    <g fill="#ffd36a" stroke="#10231f" stroke-width="10">
      <circle cx="256" cy="206" r="22" />
      <circle cx="298" cy="314" r="22" />
      <circle cx="218" cy="368" r="22" />
    </g>

    <path d="M114 78l24 24 24-24 16 16-24 24 24 24-16 16-24-24-24 24-16-16 24-24-24-24z" fill="#ffcf5a" stroke="#10231f" stroke-width="8" />
    <path d="M394 350c18 0 34 16 34 34s-16 34-34 34c-7 0-13-2-18-5l-34 23c-8 5-19 3-24-5-5-8-3-19 5-24l34-23c-2-5-3-11-3-17 0-18 16-34 40-34z" fill="url(#neck)" stroke="#10231f" stroke-width="10" />
  </g>
</svg>
